<svg xmlns="http://www.w3.org/2000/svg" width="16.005" height="18.624" viewBox="0 0 16.005 18.624"><defs><style>.a{fill:#fff;}</style></defs><g transform="translate(-36.001)"><g transform="translate(36.001)"><path class="a" d="M50.986,5.081a.146.146,0,0,0-.145-.134H48.222V4.219a4.219,4.219,0,1,0-8.439,0v.727H37.164a.146.146,0,0,0-.145.134L36,18.467a.146.146,0,0,0,.145.157H51.86A.146.146,0,0,0,52,18.467ZM40.947,4.219a3.055,3.055,0,0,1,6.111,0v.727H40.947Zm-.582,4.8A1.457,1.457,0,0,1,38.91,7.566a1.374,1.374,0,0,1,.873-1.333V7.566a.582.582,0,1,0,1.164,0V6.233a1.377,1.377,0,0,1,.873,1.333A1.457,1.457,0,0,1,40.365,9.021Zm7.275,0a1.457,1.457,0,0,1-1.455-1.455,1.374,1.374,0,0,1,.873-1.333V7.566a.582.582,0,1,0,1.164,0V6.233A1.377,1.377,0,0,1,49.1,7.566,1.457,1.457,0,0,1,47.64,9.021Z" transform="translate(-36.001)"/></g></g></svg>