<svg xmlns="http://www.w3.org/2000/svg" width="18.473" height="18.337" viewBox="0 0 18.473 18.337"><defs><style>.a{fill:none;stroke:#000;stroke-linecap:round;stroke-linejoin:round;stroke-miterlimit:10;stroke-width:32px;}.b{fill:#fff;}</style></defs><path class="a"/><path class="a"/><path class="b" d="M8.549,143.378l-8.3-3.494a.18.18,0,0,0-.25.166v9.341a.577.577,0,0,0,.363.536l8.049,3.22a.18.18,0,0,0,.247-.167v-9.435A.18.18,0,0,0,8.549,143.378Z" transform="translate(0 -134.823)"/><path class="b" d="M36.957,11.2l8.021-3.377a.18.18,0,0,0,.006-.33L37.131,3.828a.577.577,0,0,0-.488,0L28.789,7.493a.18.18,0,0,0,.006.33L36.817,11.2A.18.18,0,0,0,36.957,11.2Z" transform="translate(-27.65 -3.638)"/><path class="b" d="M272,143.544v9.435a.18.18,0,0,0,.247.167l8.049-3.22a.577.577,0,0,0,.363-.536V140.05a.18.18,0,0,0-.25-.166l-8.3,3.494A.18.18,0,0,0,272,143.544Z" transform="translate(-262.186 -134.823)"/></svg>