<svg xmlns="http://www.w3.org/2000/svg" width="15.034" height="21.868" viewBox="0 0 15.034 21.868"><defs><style>.a{fill:#fff;}</style></defs><g transform="translate(-80)"><path class="a" d="M93.069,0h-11.1A1.967,1.967,0,0,0,80,1.965V19.9a1.967,1.967,0,0,0,1.965,1.965h11.1A1.967,1.967,0,0,0,95.034,19.9V1.965A1.967,1.967,0,0,0,93.069,0ZM88.2,18.333v.459a.683.683,0,0,1-1.367,0v-.459a2.048,2.048,0,0,1-1.3-1.421.683.683,0,1,1,1.324-.34.683.683,0,1,0,.662-.855,2.05,2.05,0,0,1-.683-3.983v-.459a.683.683,0,0,1,1.367,0v.459a2.048,2.048,0,0,1,1.3,1.421.683.683,0,1,1-1.324.34.683.683,0,1,0-.662.855,2.05,2.05,0,0,1,.683,3.983ZM85.826,8.559a2.391,2.391,0,0,1,3.382,0,.683.683,0,1,1-.966.966,1.024,1.024,0,0,0-1.449,0,.683.683,0,0,1-.966-.966ZM90.9,7.835a.683.683,0,0,1-.966,0,3.416,3.416,0,0,0-4.832,0,.683.683,0,0,1-.967-.966,4.783,4.783,0,0,1,6.765,0A.683.683,0,0,1,90.9,7.835Z" transform="translate(0 0)"/></g></svg>