<svg xmlns="http://www.w3.org/2000/svg" width="19.663" height="17.697" viewBox="0 0 19.663 17.697"><defs><style>.a{fill:#fff;}</style></defs><path class="a" d="M11.831,3S5.75,8.25,2.351,11.093A1.024,1.024,0,0,0,2,11.848a.982.982,0,0,0,.983.983H4.949v6.882a.982.982,0,0,0,.983.983H8.882a.983.983,0,0,0,.983-.983V15.781H13.8v3.933a.983.983,0,0,0,.983.983H17.73a.982.982,0,0,0,.983-.983V12.831H20.68a.982.982,0,0,0,.983-.983.963.963,0,0,0-.377-.755C17.911,8.25,11.831,3,11.831,3Z" transform="translate(-2 -3)"/></svg>