<svg xmlns="http://www.w3.org/2000/svg" width="19.723" height="20.077" viewBox="0 0 19.723 20.077"><defs><style>.a{fill:#fff;}</style></defs><g transform="translate(-84.782 -81.825)"><g transform="translate(84.782 81.825)"><path class="a" d="M94.606,91.526a1.979,1.979,0,0,1-.74-.172c-2.54-1.164-5.081-2.317-7.621-3.481-.31-.138-.619-.275-.917-.43-.075-.04-.143-.08-.212-.126a.789.789,0,0,1-.321-.826.579.579,0,0,1,.224-.356,1.1,1.1,0,0,1,.315-.189c.281-.1.545-.235.814-.356q3.939-1.806,7.879-3.624a1.41,1.41,0,0,1,1.233,0q4.2,1.927,8.4,3.865a1.646,1.646,0,0,0,.212.086,1.156,1.156,0,0,1,.447.27.615.615,0,0,1,.183.487.8.8,0,0,1-.419.7c-.166.1-.338.178-.51.258q-4.068,1.858-8.143,3.722A2.266,2.266,0,0,1,94.606,91.526Z" transform="translate(-84.782 -81.825)"/><path class="a" d="M89.071,227.288a1.248,1.248,0,0,1,.539.115c.929.419,1.858.831,2.787,1.25l3.274,1.479c.069.034.138.063.206.1a.288.288,0,0,0,.281,0c2.064-.946,4.14-1.875,6.21-2.8a1.474,1.474,0,0,1,.734-.138.781.781,0,0,1,.258.069c.659.31,1.313.631,1.984.923a.735.735,0,0,1,.407,1,.841.841,0,0,1-.464.5l-8.452,3.836c-.109.052-.212.1-.321.143a1.2,1.2,0,0,1-.975,0q-4.4-1.987-8.785-3.991a.849.849,0,0,1-.51-.774.974.974,0,0,1,.011-.258.655.655,0,0,1,.373-.442c.436-.2.872-.407,1.307-.614.229-.109.459-.206.682-.321A1.113,1.113,0,0,1,89.071,227.288Z" transform="translate(-86.157 -218.946)"/><path class="a" d="M88.667,316.891a1.216,1.216,0,0,1,.545.12c.975.436,1.955.872,2.93,1.313q1.574.705,3.148,1.422l.172.086a.31.31,0,0,0,.292.006c1.726-.8,3.464-1.571,5.2-2.351l1.084-.482a1.307,1.307,0,0,1,.568-.115,1.007,1.007,0,0,1,.4.1c.648.31,1.3.608,1.944.912a1.139,1.139,0,0,1,.12.057.6.6,0,0,1,.327.528.915.915,0,0,1-.55.923q-4.37,1.978-8.745,3.968a1.169,1.169,0,0,1-1,0c-2.913-1.319-5.826-2.649-8.745-3.968a.911.911,0,0,1-.533-1,.607.607,0,0,1,.378-.482c.39-.184.774-.361,1.164-.545.281-.132.562-.258.837-.4A1.108,1.108,0,0,1,88.667,316.891Z" transform="translate(-85.753 -303.411)"/></g></g></svg>