<svg xmlns="http://www.w3.org/2000/svg" width="13.566" height="17.836" viewBox="0 0 13.566 17.836"><defs><style>.a{fill:#fff;}</style></defs><g transform="translate(-41.895)"><path class="a" d="M108.126,8.723c1.983,0,3.591-1.953,3.591-4.361S111.189,0,108.126,0s-3.591,1.953-3.591,4.361S106.143,8.723,108.126,8.723Z" transform="translate(-59.448 0)"/><path class="a" d="M41.9,300.447c0-.147,0-.041,0,0Z" transform="translate(0 -285.065)"/><path class="a" d="M308.085,301.62c0-.04,0-.279,0,0Z" transform="translate(-252.625 -286.123)"/><path class="a" d="M55.464,183.889c-.067-4.2-.615-5.392-4.808-6.149a2.946,2.946,0,0,1-3.932,0c-4.148.749-4.729,1.926-4.806,6.012-.006.334-.009.351-.01.312,0,.073,0,.207,0,.441,0,0,1,2.013,6.782,2.013s6.782-2.013,6.782-2.013c0-.15,0-.255,0-.326A2.7,2.7,0,0,1,55.464,183.889Z" transform="translate(-0.012 -168.683)"/></g></svg>