<svg xmlns="http://www.w3.org/2000/svg" width="19.663" height="17.282" viewBox="0 0 19.663 17.282"><defs><style>.a{fill:#fff;}</style></defs><g transform="translate(0 0)"><path class="a" d="M6.375,11.521H16.783a.574.574,0,0,0,.554-.418l2.3-8.065a.575.575,0,0,0-.554-.734H5.045L4.633.451A.576.576,0,0,0,4.071,0H.576a.576.576,0,0,0,0,1.152H3.608l2.08,9.361a1.727,1.727,0,0,0,.686,3.312H16.783a.576.576,0,1,0,0-1.152H6.375a.576.576,0,0,1,0-1.152Zm0,0" transform="translate(0 0)"/><path class="a" d="M151,361.732A1.728,1.728,0,1,0,152.728,360,1.73,1.73,0,0,0,151,361.732Zm0,0" transform="translate(-145.201 -346.178)"/><path class="a" d="M362,361.732A1.728,1.728,0,1,0,363.732,360,1.73,1.73,0,0,0,362,361.732Zm0,0" transform="translate(-348.102 -346.178)"/></g></svg>